<svg width="46" height="47" viewBox="0 0 46 47" fill="none" xmlns="http://www.w3.org/2000/svg">
<path d="M22.9999 0.812805C10.2974 0.812805 0 11.1102 0 23.8128C0 36.5153 10.2974 46.8127 22.9999 46.8127C35.7025 46.8127 45.9999 36.5153 45.9999 23.8128C45.9864 11.1159 35.6969 0.826378 22.9999 0.812805ZM32.6861 24.5456C32.5269 24.865 32.2681 25.1239 31.9486 25.2831V25.2913L18.8058 31.8628C17.9941 32.2683 17.0074 31.9392 16.6018 31.1275C16.4864 30.8968 16.427 30.6421 16.4285 30.3842V17.2414C16.4281 16.334 17.1633 15.5982 18.0706 15.5977C18.3258 15.5976 18.5775 15.6569 18.8058 15.771L31.9486 22.3425C32.7606 22.7471 33.0909 23.7335 32.6861 24.5456Z" fill="#01ACEE"/>
</svg>
